<?xml version="1.0" standalone="no"?>
<!DOCTYPE svg PUBLIC "-//W3C//DTD SVG 20010904//EN"
 "http://www.w3.org/TR/2001/REC-SVG-20010904/DTD/svg10.dtd">
<svg version="1.0" xmlns="http://www.w3.org/2000/svg"
 width="128.000000pt" height="128.000000pt" viewBox="0 0 128.000000 128.000000"
 preserveAspectRatio="xMidYMid meet">

<g transform="translate(0.000000,128.000000) scale(0.100000,-0.100000)"
fill="#000000" stroke="none">
<path d="M1 998 c1 -268 1 -279 15 -218 49 231 253 435 484 484 61 14 50 14
-217 15 l-283 1 1 -282z"/>
<path d="M780 1264 c36 -7 103 -32 150 -55 162 -80 297 -254 335 -429 13 -61
13 -49 14 218 l1 282 -282 -1 c-268 -1 -279 -1 -218 -15z"/>
<path d="M760 955 c0 -24 2 -25 70 -25 39 0 70 -3 70 -6 0 -7 -73 -278 -76
-282 -2 -3 -117 11 -206 24 -36 6 -38 7 -38 45 0 21 5 39 10 39 6 0 10 25 10
55 l0 55 -185 0 -185 0 0 -30 c0 -27 4 -30 42 -37 l43 -6 -45 -19 c-54 -23
-50 -19 -60 -62 l-8 -36 94 0 c52 0 94 -4 94 -9 0 -30 -14 -41 -54 -41 -80 0
-136 -61 -136 -148 0 -48 4 -57 39 -95 39 -41 41 -42 106 -42 65 0 67 1 107
43 38 42 40 45 36 102 -2 49 0 60 16 70 16 10 22 9 33 -6 7 -10 13 -24 13 -31
0 -10 29 -13 129 -13 l129 0 27 55 c31 64 89 104 159 112 l42 5 -7 53 c-8 57
-25 97 -64 143 -24 29 -24 30 -5 35 13 3 20 14 20 30 0 34 -40 47 -141 47 -78
0 -79 0 -79 -25z"/>
<path d="M977 623 c-21 -5 -22 -2 18 -76 42 -79 29 -90 -62 -54 -51 20 -69 24
-75 14 -12 -20 -9 -49 12 -94 25 -56 70 -83 138 -83 47 0 57 4 94 38 35 33 41
45 46 92 6 64 -15 111 -62 139 -35 21 -82 31 -109 24z"/>
<path d="M1 283 l-1 -283 283 1 c266 1 278 1 218 14 -35 8 -103 33 -150 57
-165 81 -297 250 -335 428 -14 61 -14 50 -15 -217z"/>
<path d="M1270 527 c0 -34 -34 -127 -72 -200 -40 -77 -152 -191 -234 -239 -57
-33 -159 -72 -214 -81 -14 -2 100 -5 253 -6 l277 -1 0 275 c0 151 -2 275 -5
275 -3 0 -5 -11 -5 -23z"/>
</g>
</svg>
