<?xml version="1.0" standalone="no"?>
<!DOCTYPE svg PUBLIC "-//W3C//DTD SVG 20010904//EN"
 "http://www.w3.org/TR/2001/REC-SVG-20010904/DTD/svg10.dtd">
<svg version="1.0" xmlns="http://www.w3.org/2000/svg"
 width="1001.000000pt" height="1001.000000pt" viewBox="0 0 1001.000000 1001.000000"
 preserveAspectRatio="xMidYMid meet">

<g transform="translate(0.000000,1001.000000) scale(0.100000,-0.100000)"
fill="#000000" stroke="none">
<path d="M6451 8549 c-33 -13 -65 -52 -106 -130 -48 -92 -60 -153 -45 -237 18
-109 100 -252 143 -252 10 0 66 18 123 41 58 23 107 39 109 38 2 -2 17 -35 35
-74 17 -38 52 -110 76 -159 38 -78 44 -99 44 -153 0 -47 -4 -65 -15 -69 -9 -4
-15 -19 -15 -35 0 -18 -5 -29 -14 -29 -39 0 -305 -138 -335 -174 -7 -8 -16
-27 -20 -42 -5 -20 -59 -65 -221 -183 -196 -143 -215 -160 -218 -189 -6 -64
54 -219 139 -360 21 -35 39 -66 39 -68 0 -2 34 -55 75 -119 84 -130 75 -125
168 -78 27 13 53 23 59 21 6 -2 -26 -20 -71 -41 -44 -20 -81 -39 -81 -41 0 -3
24 -52 54 -108 150 -286 151 -288 116 -288 -11 0 -20 -6 -21 -12 -1 -7 -4 -2
-8 12 -6 19 -13 24 -31 22 -39 -4 -50 -21 -50 -74 0 -57 10 -80 54 -126 26
-27 39 -61 76 -195 l46 -162 -27 -70 c-58 -151 -155 -523 -264 -1015 -71 -322
-62 -293 -94 -287 -14 3 -186 24 -381 46 -195 23 -365 44 -376 46 -18 4 -26
23 -49 117 -15 62 -56 199 -90 303 -34 105 -65 202 -68 216 -6 22 5 41 61 114
68 89 109 143 137 181 15 20 14 28 -19 108 l-35 86 33 14 c111 46 99 196 -28
351 -71 87 -246 249 -292 272 -180 88 -601 153 -1184 182 -172 9 -177 10 -278
50 -320 127 -726 209 -1147 230 l-160 8 -175 86 c-228 111 -363 159 -451 160
-76 1 -102 -12 -97 -52 2 -17 15 -33 36 -46 43 -26 171 -111 244 -161 l57 -39
-147 -5 c-140 -5 -202 -18 -202 -42 0 -5 22 -37 50 -72 27 -35 50 -70 50 -78
0 -9 9 -27 20 -40 10 -14 16 -29 12 -32 -4 -4 -1 -6 7 -4 27 6 22 -22 -10 -51
-41 -38 -38 -41 86 -117 52 -31 99 -62 105 -69 20 -24 -27 -120 -103 -213 -93
-113 -114 -137 -222 -250 -192 -200 -224 -238 -225 -254 0 -12 13 -21 40 -29
22 -7 39 -15 38 -18 -2 -3 -48 -49 -103 -101 -55 -52 -201 -191 -325 -310
-124 -119 -251 -240 -283 -270 -65 -61 -63 -76 8 -66 58 9 251 105 308 154 38
32 346 279 440 352 18 14 199 159 404 323 l371 297 108 -13 107 -12 11 -32
c13 -38 67 -98 105 -117 14 -7 64 -16 111 -20 46 -4 86 -8 88 -10 2 -2 -2 -22
-8 -45 -8 -30 -16 -41 -30 -41 -26 0 -26 -20 0 -27 23 -6 23 -4 11 -37 -7 -16
-19 -26 -37 -28 -36 -4 -44 -28 -10 -28 13 0 28 -5 31 -10 11 -18 -5 -48 -30
-54 -30 -8 -33 -26 -5 -33 13 -3 20 -14 20 -29 0 -28 -9 -29 -76 -10 -227 67
-518 59 -747 -20 -411 -142 -712 -479 -808 -904 -25 -113 -35 -311 -20 -422
12 -88 43 -225 60 -263 5 -11 23 -54 41 -95 111 -261 318 -475 590 -612 56
-28 87 -48 75 -49 -11 -1 -42 -4 -70 -6 -27 -2 -89 -6 -137 -9 -52 -3 -88 -10
-88 -16 0 -7 -26 -8 -80 -4 -54 5 -80 4 -80 -3 0 -7 30 -11 80 -11 79 0 80 0
80 -25 0 -25 1 -25 80 -25 64 0 80 -3 80 -15 0 -12 16 -15 88 -15 48 0 186 -7
307 -15 266 -17 1332 -40 1538 -32 81 3 147 2 147 -3 0 -5 596 -9 1360 -8 748
0 1360 4 1360 9 0 4 60 5 133 2 161 -7 1378 16 1392 26 5 4 79 7 162 6 119 0
154 2 158 13 2 7 1 11 -4 7 -5 -3 -20 0 -33 5 l-23 11 24 -5 c13 -3 35 0 49 5
21 8 23 7 13 -5 -10 -12 -6 -14 24 -14 20 0 35 5 35 12 0 6 5 5 11 -4 8 -11
12 -12 16 -2 2 6 9 12 14 12 6 0 7 -4 4 -10 -13 -21 37 -9 61 15 14 14 30 25
37 25 7 0 1 -9 -13 -20 -14 -10 -23 -20 -20 -22 3 -2 50 -1 105 2 l100 4 -85
6 -85 6 83 2 c80 2 82 3 82 27 0 23 4 25 43 26 30 1 17 5 -46 14 -83 12 -115
23 -92 31 30 11 164 107 224 162 159 142 286 349 337 547 31 123 43 334 25
452 -73 471 -421 837 -892 934 -30 6 -113 14 -186 18 l-132 6 107 75 107 75
105 -2 c221 -5 443 -38 592 -89 83 -28 106 -30 115 -8 11 29 -113 135 -321
274 -284 189 -524 307 -612 299 -10 -1 -44 -1 -74 -1 l-55 2 30 28 c17 15 64
56 105 92 90 78 90 77 90 116 0 19 9 39 25 54 30 28 31 53 5 145 -52 185 -149
346 -298 494 -53 53 -110 107 -127 119 -96 71 -124 96 -118 105 3 6 1 7 -5 3
-6 -3 -37 10 -69 31 -131 85 -350 195 -515 259 -116 45 -127 51 -128 74 0 25
2 26 103 37 56 7 118 17 139 23 36 10 36 12 48 82 8 46 10 111 6 182 -9 144
-9 146 -1 179 11 41 -11 85 -47 92 -17 4 -43 22 -59 40 -16 17 -44 43 -63 55
-18 13 -44 41 -57 62 -13 21 -34 41 -46 44 -17 5 -25 18 -34 60 -11 47 -15 54
-36 54 -22 0 -23 2 -23 88 0 85 -2 91 -70 256 l-70 168 25 20 c67 53 -15 222
-201 415 -61 64 -77 70 -123 52z m725 -1354 c1 -14 -2 -25 -7 -25 -10 0 -12
33 -2 43 3 4 7 7 7 7 1 0 2 -11 2 -25z m34 21 c0 -3 -4 -8 -10 -11 -5 -3 -10
-1 -10 4 0 6 5 11 10 11 6 0 10 -2 10 -4z m-209 -15 c-13 -8 -13 -12 0 -28 13
-16 13 -17 -3 -4 -10 7 -25 11 -33 7 -8 -3 -15 -1 -15 4 0 6 7 10 15 10 8 0
15 5 15 10 0 6 8 10 18 10 14 0 14 -2 3 -9z m142 -21 c-3 -11 -9 -17 -15 -14
-5 3 -4 12 3 20 16 19 18 18 12 -6z m79 -19 c2 -22 0 -37 -4 -35 -8 5 -11 74
-4 74 2 0 6 -18 8 -39z m15 7 c-3 -8 -6 -5 -6 6 -1 11 2 17 5 13 3 -3 4 -12 1
-19z m-267 -17 c0 -5 -9 -11 -20 -14 -13 -3 -20 0 -20 9 0 8 9 14 20 14 11 0
20 -4 20 -9z m61 -24 c-10 -9 -11 -8 -5 6 3 10 9 15 12 12 3 -3 0 -11 -7 -18z
m166 7 c-3 -3 -12 -4 -19 -1 -8 3 -5 6 6 6 11 1 17 -2 13 -5z m13 -18 c0 -2
-9 -6 -20 -9 -11 -3 -20 -1 -20 4 0 5 9 9 20 9 11 0 20 -2 20 -4z m-190 -10
c0 -3 -4 -8 -10 -11 -5 -3 -10 -1 -10 4 0 6 5 11 10 11 6 0 10 -2 10 -4z m60
-566 c252 -100 519 -251 701 -398 142 -115 272 -270 344 -412 36 -71 85 -221
85 -260 0 -22 -44 -80 -62 -80 -4 0 -307 -166 -672 -370 -366 -203 -667 -370
-670 -370 -4 0 -6 42 -6 93 l0 92 108 139 c103 134 421 550 525 687 l50 67
103 27 104 28 0 77 0 77 -276 229 c-473 392 -469 388 -472 407 -2 9 0 17 3 17
4 0 65 -23 135 -50z m-191 -54 c-12 -11 -79 -34 -79 -26 0 4 12 13 28 18 27
11 59 15 51 8z m-3 -328 c52 -100 -72 -252 -146 -178 -57 57 14 210 96 210 27
0 36 -6 50 -32z m-4696 -64 c118 -36 251 -76 295 -89 168 -49 1330 -400 1478
-446 54 -17 97 -35 97 -42 0 -10 51 -199 76 -280 4 -12 -29 3 -103 48 l-108
65 -90 0 -90 0 -110 89 -111 90 -428 151 c-235 83 -430 149 -433 146 -3 -2 30
-21 74 -41 277 -127 472 -219 470 -221 -2 -3 -143 52 -751 290 -120 48 -220
85 -222 84 -1 -2 108 -65 244 -141 249 -138 459 -256 762 -427 91 -51 211
-118 267 -149 95 -52 120 -71 92 -71 -6 0 -107 57 -225 126 -119 69 -217 124
-220 122 -6 -7 400 -348 414 -348 4 0 31 16 60 36 l53 37 30 -29 c17 -16 116
-119 220 -230 l188 -200 373 -242 c318 -205 432 -275 408 -250 -7 7 -463 376
-797 643 -144 116 -260 211 -259 213 2 1 77 -39 167 -89 139 -77 177 -104 247
-172 84 -84 105 -94 51 -26 -17 21 -27 39 -23 39 4 0 32 -14 63 -30 39 -22
108 -84 230 -208 95 -97 158 -157 139 -132 -143 187 -168 220 -168 226 0 3 6
2 13 -4 15 -12 248 -142 255 -142 3 0 -8 12 -24 26 -16 15 -115 111 -220 215
-140 139 -197 189 -215 189 -13 0 -33 7 -44 16 -12 9 -31 13 -50 9 l-30 -5 27
11 c20 8 34 7 57 -5 31 -17 71 -21 71 -8 0 4 -45 30 -100 59 -87 44 -100 49
-100 32 0 -10 5 -19 10 -19 6 0 10 -4 10 -8 0 -4 -26 -14 -58 -21 -83 -18 -92
-26 -54 -45 27 -14 39 -14 77 -5 25 6 48 9 51 6 9 -9 -94 -27 -113 -19 -42 17
-153 84 -153 93 0 5 10 9 23 9 15 0 18 -3 9 -8 -8 -6 -2 -13 21 -24 31 -15 39
-15 98 1 35 10 64 23 63 30 -1 6 -2 18 -2 26 -1 8 -37 33 -79 54 -43 22 -73
40 -67 41 5 0 64 -27 130 -61 l119 -61 -104 103 -104 102 38 -6 c43 -7 105
-46 220 -138 282 -228 514 -500 680 -799 46 -85 136 -282 131 -288 -2 -1 -46
25 -99 58 -380 238 -769 431 -1022 505 -86 26 -210 35 -296 24 -23 -4 -81 50
-442 404 -229 225 -432 421 -451 435 -18 15 -149 90 -289 167 -248 136 -256
141 -272 181 -9 23 -30 64 -47 90 -95 148 -235 236 -463 292 -33 8 -17 10 90
11 l130 1 215 -66z m-382 15 c26 -6 92 -33 148 -59 84 -41 111 -60 165 -117
61 -65 97 -118 88 -127 -2 -3 -52 8 -109 25 -58 16 -112 29 -122 29 -11 0 -25
-22 -44 -70 -15 -38 -30 -70 -33 -70 -3 1 -24 30 -46 65 -22 36 -68 93 -102
129 -55 56 -63 69 -63 103 0 43 32 103 55 103 9 0 37 -5 63 -11z m1196 -418
c19 -11 36 -18 39 -15 2 2 15 0 28 -5 23 -9 23 -10 -6 -10 -28 0 -134 48 -108
49 7 0 28 -9 47 -19z m135 -42 c17 -6 31 -15 31 -20 0 -5 7 -9 15 -9 8 0 15
-4 15 -10 0 -14 -11 -13 -69 12 -36 14 -48 24 -39 29 7 5 13 9 14 9 1 0 15 -5
33 -11z m91 -40 c0 -5 4 -7 10 -4 5 3 19 1 30 -5 18 -10 19 -14 8 -28 -12 -15
-11 -16 13 0 19 12 30 13 45 5 10 -6 25 -12 32 -13 8 -2 19 -10 26 -20 8 -11
20 -15 30 -11 10 4 39 -2 66 -14 48 -21 68 -43 50 -54 -6 -4 -10 0 -10 8 0 11
-7 13 -22 9 -16 -4 -19 -2 -13 8 5 9 4 11 -4 6 -6 -4 -25 0 -43 8 -17 9 -33
14 -35 12 -4 -4 83 -46 96 -46 6 0 13 -4 16 -10 4 -6 -1 -7 -12 -3 -15 5 -16
3 -6 -7 10 -11 16 -10 32 4 18 17 21 17 45 1 14 -10 26 -21 26 -26 0 -5 6 -9
13 -9 8 0 22 -9 32 -20 18 -20 18 -21 -1 -35 -19 -15 -19 -15 0 -8 13 4 17 3
12 -5 -4 -7 -1 -12 10 -12 13 0 14 3 5 14 -8 10 -9 16 -1 21 5 3 10 0 10 -8 0
-21 43 -29 141 -28 79 2 87 0 92 -19 3 -11 1 -23 -4 -26 -5 -3 -7 -10 -4 -15
4 -5 2 -9 -4 -9 -5 0 -12 4 -15 8 -8 13 -66 13 -89 0 -11 -5 -17 -6 -14 -1 3
4 -6 9 -20 10 -15 0 -21 -2 -14 -6 9 -6 8 -11 -3 -20 -13 -11 -17 -9 -25 11
-6 15 -39 39 -99 71 -99 52 -102 53 -102 33 0 -7 -14 -16 -32 -20 -41 -8 -49
0 -8 9 29 6 31 9 24 38 -3 17 -16 39 -28 49 -22 19 -124 70 -163 82 -13 4 -23
12 -23 17 0 6 -4 7 -10 4 -5 -3 -20 -1 -32 6 -22 12 -22 12 -3 20 16 7 14 8
-10 6 -21 -1 -30 3 -33 16 -2 9 1 17 7 17 6 0 11 -5 11 -11z m208 -266 c-11
-3 -18 -14 -18 -28 0 -19 17 -32 101 -75 107 -55 149 -60 149 -20 0 21 1 22
70 26 38 3 62 -6 157 -54 121 -61 120 -58 26 -82 -35 -9 -43 -15 -43 -34 0
-22 2 -23 38 -15 59 14 72 9 17 -7 -65 -18 -65 -18 -65 10 0 20 -4 23 -21 19
-32 -9 -158 56 -165 84 -5 19 -11 21 -37 16 -24 -5 -50 4 -133 48 -87 46 -103
58 -107 82 -4 32 -1 37 27 36 17 -1 18 -2 4 -6z m204 -29 c28 -15 29 -17 14
-26 -23 -13 -105 20 -84 34 19 12 35 10 70 -8z m368 -35 c47 -29 57 -38 35
-33 -16 4 -33 11 -36 16 -3 5 -12 6 -21 3 -20 -8 -71 12 -63 25 4 6 16 8 28 5
19 -5 19 -4 -3 9 -14 9 -20 15 -15 15 6 0 39 -18 75 -40z m-425 14 c28 -13 35
-22 35 -45 0 -32 2 -33 -88 20 -32 18 -40 27 -30 33 20 13 44 11 83 -8z m508
-217 l39 -24 -29 -9 c-22 -8 -36 -6 -65 9 -44 22 -46 26 -15 38 30 12 27 12
70 -14z m-937 -24 c18 -6 174 -142 162 -142 -2 0 -50 14 -108 30 -58 17 -110
30 -115 30 -6 0 -46 -69 -90 -154 -100 -195 -96 -190 -129 -175 -15 7 -25 17
-22 23 44 105 50 116 67 116 25 0 35 21 16 32 -25 13 -1 58 35 65 32 6 37 23
9 30 -17 4 -17 7 -4 34 8 17 22 29 34 29 21 0 26 26 7 32 -10 4 -10 10 -1 31
11 25 17 27 65 26 29 -1 63 -4 74 -7z m882 -20 c2 -7 -4 -12 -14 -12 -9 0 -14
3 -11 7 4 3 -1 12 -11 20 -15 12 -14 12 7 5 14 -5 27 -14 29 -20z m2476 -68
c9 -3 16 -13 16 -21 0 -21 -44 -12 -48 10 -4 18 6 21 32 11z m1130 -276 c22
-57 50 -127 62 -155 57 -129 27 -92 -53 65 -74 144 -86 174 -73 182 8 5 17 10
20 10 3 0 23 -46 44 -102z m-113 -164 c39 -80 69 -146 68 -148 -48 -32 -63
-38 -67 -26 -3 7 -33 70 -67 140 l-63 127 26 27 c15 14 28 26 30 26 1 0 34
-66 73 -146z m-208 -171 l65 -112 -67 -68 c-100 -101 -188 -223 -220 -304
l-10 -24 0 25 c-3 88 48 427 75 502 16 46 73 113 85 101 4 -5 37 -58 72 -120z
m-4828 19 c106 -29 185 -67 185 -90 0 -10 -11 -41 -24 -69 -28 -56 -142 -212
-162 -220 -7 -2 -59 16 -116 40 -103 45 -266 111 -450 181 -54 21 -98 42 -98
47 0 23 214 110 318 129 73 14 267 3 347 -18z m5647 -267 c10 -35 2 -143 -16
-212 l-12 -48 -47 -3 c-53 -4 -42 -19 -117 162 -23 54 -38 102 -33 107 10 10
134 28 182 25 29 -1 36 -6 43 -31z m179 -1 c124 -37 272 -132 353 -227 51 -60
137 -197 131 -207 -3 -4 -58 -31 -122 -60 -65 -29 -130 -58 -146 -66 -27 -13
-28 -12 -56 45 -27 52 -132 171 -151 171 -20 0 -38 32 -44 77 -4 26 -16 94
-27 151 -10 57 -19 110 -19 118 0 18 14 18 81 -2z m-531 -211 c29 -62 50 -116
47 -120 -4 -4 -11 -2 -16 3 -21 20 -121 236 -115 245 10 17 26 -7 84 -128z
m-190 -3 c0 -4 23 -44 50 -90 28 -46 49 -84 48 -86 -2 -1 -55 10 -118 26 -125
31 -126 31 -83 90 51 69 75 90 90 79 7 -6 13 -15 13 -19z m-6110 -143 c12 -23
55 -58 158 -127 78 -52 141 -98 142 -101 0 -3 -73 -45 -161 -93 -121 -67 -163
-85 -169 -75 -16 25 -32 184 -26 253 7 80 26 176 35 176 3 0 13 -15 21 -33z
m5992 -74 c34 -13 122 -65 160 -93 3 -3 -2 -30 -12 -60 -38 -110 -19 -297 39
-384 20 -30 20 -30 -2 -57 -12 -15 -49 -66 -81 -113 -33 -47 -61 -86 -62 -86
-8 0 -92 135 -115 186 -37 82 -68 218 -69 301 0 117 54 323 86 323 7 0 33 -8
56 -17z m850 -164 l18 -34 -33 -12 c-52 -19 -57 -17 -41 17 9 16 16 39 17 50
2 29 19 20 39 -21z m535 -95 c15 -197 -67 -410 -217 -567 l-67 -71 -102 123
-103 123 31 32 c54 56 99 143 112 217 l12 70 61 36 c34 21 95 62 136 93 111
83 113 84 123 52 4 -15 10 -64 14 -108z m-1008 -27 c11 -21 9 -29 -19 -70 -17
-26 -35 -49 -39 -51 -20 -13 -37 100 -25 162 l6 31 32 -24 c18 -14 38 -35 45
-48z m-5794 -53 c48 -34 65 -52 65 -69 0 -40 58 -247 114 -411 l55 -157 -82 7
c-156 12 -296 65 -433 162 -72 51 -193 178 -220 232 -10 20 -25 45 -33 54 -7
10 -11 24 -8 32 13 32 395 196 459 196 9 0 47 -21 83 -46z m6275 -79 c0 -14
-31 -65 -39 -65 -10 0 -21 24 -21 45 0 13 17 21 48 24 6 0 12 -1 12 -4z m-290
-83 c0 -9 9 -34 20 -55 11 -20 20 -39 20 -43 0 -8 -91 7 -128 22 -39 16 -36
24 20 65 47 33 68 37 68 11z m-5384 -93 c148 -27 270 -52 272 -54 2 -2 -8 -20
-23 -39 -36 -48 -147 -137 -223 -180 -71 -40 -212 -90 -222 -79 -7 8 -58 211
-80 318 -6 28 -13 58 -16 68 -3 11 0 17 9 17 8 0 135 -23 283 -51z m1149 -5
c-5 -2 -81 -19 -168 -38 -126 -27 -165 -32 -192 -25 -23 7 -35 16 -35 27 0 39
18 42 215 41 104 0 186 -2 180 -5z m1037 -39 c15 -22 33 -57 40 -79 6 -21 17
-40 22 -42 17 -6 1340 -64 1456 -64 251 0 489 73 604 186 25 24 47 44 50 44 2
0 11 -28 21 -62 64 -228 291 -506 512 -626 13 -8 23 -16 20 -18 -7 -7 -57 18
-57 28 0 4 -9 8 -20 8 -11 0 -20 4 -20 8 0 4 -9 8 -19 8 -11 0 -17 -4 -15 -8
3 -4 0 -8 -5 -8 -6 0 -11 6 -11 13 0 8 -4 7 -10 -3 -9 -13 -11 -13 -20 0 -6 9
-10 10 -10 3 0 -8 -57 -12 -215 -13 -150 0 -215 3 -215 10 0 8 -136 10 -480 8
-286 -2 -480 1 -480 6 0 13 -2714 -1 -2718 -14 -5 -15 -307 -13 -360 3 -23 7
-39 17 -35 22 4 4 2 5 -5 1 -7 -4 -10 -11 -7 -16 3 -5 -3 -8 -12 -8 -10 1 -29
-2 -43 -6 -14 -4 9 11 50 34 175 97 356 261 447 408 35 56 50 71 62 66 95 -41
65 -43 486 36 215 39 446 83 515 95 101 19 156 23 285 22 l159 -2 28 -40z
m2987 -65 c99 -53 219 -73 319 -51 l53 11 115 -116 c64 -64 112 -120 107 -124
-17 -17 -113 -49 -194 -66 -113 -23 -249 -15 -356 21 -84 28 -195 84 -230 117
l-22 21 30 44 c38 55 128 163 136 163 3 0 22 -9 42 -20z m-5074 -580 c-3 -5
-12 -10 -18 -10 -7 0 -6 4 3 10 19 12 23 12 15 0z m-898 -16 c-3 -3 -12 -4
-19 -1 -8 3 -5 6 6 6 11 1 17 -2 13 -5z m-10 -20 c-3 -3 -12 -4 -19 -1 -8 3
-5 6 6 6 11 1 17 -2 13 -5z m6737 -6 c-5 -8 2 -9 24 -5 18 4 32 3 32 -1 0 -9
-48 -14 -61 -6 -9 5 -3 24 7 24 3 0 2 -5 -2 -12z m113 -14 c-3 -3 -12 -4 -19
-1 -8 3 -5 6 6 6 11 1 17 -2 13 -5z m-201 -30 c-11 -8 -27 -14 -35 -14 -9 0
-3 8 14 19 34 21 50 17 21 -5z m-70 -13 c-8 -12 -46 -21 -46 -11 0 5 10 11 23
13 12 2 23 5 25 6 2 0 1 -3 -2 -8z m-6029 -7 c-3 -3 -12 -4 -19 -1 -8 3 -5 6
6 6 11 1 17 -2 13 -5z m-30 -20 c-3 -3 -12 -4 -19 -1 -8 3 -5 6 6 6 11 1 17
-2 13 -5z m-240 -10 c-3 -3 -12 -4 -19 -1 -8 3 -5 6 6 6 11 1 17 -2 13 -5z
m5840 0 c-3 -3 -12 -4 -19 -1 -8 3 -5 6 6 6 11 1 17 -2 13 -5z"/>
<path d="M7572 5619 c-2 -27 0 -29 23 -23 20 5 24 3 19 -10 -9 -23 13 -20 26
3 13 26 13 28 -6 35 -8 3 -12 2 -9 -4 3 -6 -1 -10 -9 -10 -9 0 -16 6 -16 14 0
8 -6 16 -13 19 -8 3 -14 -5 -15 -24z"/>
<path d="M7493 5587 c2 -17 -26 -47 -118 -128 -195 -172 -339 -330 -399 -438
l-18 -33 23 7 c30 9 91 37 67 30 -37 -10 -14 5 105 65 134 69 325 175 400 222
l48 31 39 -18 40 -18 -23 -22 c-12 -11 -66 -41 -119 -65 -54 -24 -97 -45 -95
-46 2 -2 56 17 121 41 96 35 123 42 139 33 16 -8 35 -3 99 28 43 21 78 43 78
50 0 14 45 27 69 19 10 -3 38 3 62 14 38 16 41 20 24 26 -139 52 -360 143
-439 179 -54 25 -100 46 -102 46 -1 0 -2 -10 -1 -23z m76 -190 c-24 -11 -46
-21 -49 -22 -3 -1 -13 -5 -22 -9 -10 -4 -23 -6 -30 -3 -7 3 0 10 17 16 17 7
48 21 69 31 22 11 44 16 50 13 5 -4 -10 -16 -35 -26z m386 -15 c-3 -3 -11 0
-18 7 -9 10 -8 11 6 5 10 -3 15 -9 12 -12z"/>
<path d="M7657 5593 c-19 -18 14 -53 49 -53 26 0 33 27 12 48 -13 13 -50 16
-61 5z m53 -17 c0 -20 -19 -31 -32 -18 -6 6 -7 15 -4 21 10 16 36 13 36 -3z"/>
<path d="M7744 5546 c-1 -17 1 -23 3 -13 6 23 23 22 23 -2 0 -28 21 -37 37
-16 16 22 17 35 3 35 -5 0 -10 -8 -11 -17 0 -14 -2 -13 -9 4 -5 12 -17 26 -27
31 -15 9 -18 6 -19 -22z"/>
<path d="M7833 5528 c0 -7 -2 -19 -4 -26 -3 -8 15 -20 44 -32 43 -17 49 -17
63 -2 14 14 15 13 12 -8 -2 -16 3 -25 18 -30 19 -8 20 -6 10 25 -9 29 -46 57
-46 35 0 -4 -7 -10 -14 -13 -10 -4 -13 -1 -10 8 4 9 -7 22 -28 35 -39 23 -45
24 -45 8z m47 -34 c0 -16 -16 -19 -25 -4 -8 13 4 32 16 25 5 -4 9 -13 9 -21z"/>
<path d="M3323 5563 c4 -3 4 -10 1 -15 -4 -7 -2 -8 5 -4 6 4 18 3 25 -3 9 -8
13 -7 13 2 0 8 -5 14 -11 14 -6 0 -18 3 -26 5 -8 3 -12 3 -7 1z"/>
<path d="M3447 5519 c7 -7 15 -10 18 -7 3 3 -2 9 -12 12 -14 6 -15 5 -6 -5z"/>
<path d="M3550 5435 c0 -8 4 -15 10 -15 5 0 7 7 4 15 -4 8 -8 15 -10 15 -2 0
-4 -7 -4 -15z"/>
<path d="M3571 5403 c-12 -13 -11 -14 9 -8 13 4 20 3 17 -2 -3 -5 7 -9 22 -8
18 0 27 4 24 12 -3 7 -8 12 -11 11 -4 0 -9 1 -12 2 -21 8 -37 5 -49 -7z"/>
<path d="M3700 5332 c0 -15 28 -23 36 -9 4 7 4 9 -1 5 -4 -4 -14 -3 -22 3 -8
7 -13 8 -13 1z"/>
<path d="M3755 5235 c-5 -2 -23 -6 -38 -9 -25 -6 -28 -11 -25 -39 3 -28 11
-36 66 -65 34 -18 70 -32 80 -29 12 2 2 11 -30 27 -25 13 -49 32 -51 42 -6 21
-3 22 24 7 11 -5 16 -15 13 -21 -4 -6 -3 -8 4 -5 13 9 44 -2 37 -13 -6 -10 73
-4 104 8 22 8 17 12 -62 55 -82 44 -98 50 -122 42z m88 -52 c29 -16 30 -18 10
-21 -20 -3 -83 22 -83 33 0 11 43 4 73 -12z"/>
<path d="M1770 2390 c0 -5 5 -10 10 -10 6 0 10 5 10 10 0 6 -4 10 -10 10 -5 0
-10 -4 -10 -10z"/>
<path d="M8698 2393 c7 -3 16 -2 19 1 4 3 -2 6 -13 5 -11 0 -14 -3 -6 -6z"/>
<path d="M8675 2369 c18 -5 33 -5 39 1 7 7 -4 10 -29 9 -40 -1 -40 -1 -10 -10z"/>
<path d="M1538 2263 c12 -2 30 -2 40 0 9 3 -1 5 -23 4 -22 0 -30 -2 -17 -4z"/>
</g>
</svg>
